<mxfile host="app.diagrams.net" modified="2022-02-16T09:49:25.123Z" agent="5.0 (Windows NT 10.0; Win64; x64) AppleWebKit/537.36 (KHTML, like Gecko) Chrome/87.0.4280.141 Safari/537.36" etag="pZYWaslvf1mDV2grU_2K" version="16.5.6" type="github">
  <diagram id="dIdX_G1KkQ3wB-MaZZmV" name="Page-1">
    <mxGraphModel dx="1422" dy="849" grid="1" gridSize="10" guides="1" tooltips="1" connect="1" arrows="1" fold="1" page="1" pageScale="1" pageWidth="827" pageHeight="1169" math="0" shadow="0">
      <root>
        <mxCell id="0" />
        <mxCell id="1" parent="0" />
        <mxCell id="NsStf1FApIUiPz_v59kX-1" value="MachineState" style="swimlane;fontStyle=1;align=center;verticalAlign=top;childLayout=stackLayout;horizontal=1;startSize=26;horizontalStack=0;resizeParent=1;resizeParentMax=0;resizeLast=0;collapsible=1;marginBottom=0;" parent="1" vertex="1">
          <mxGeometry x="280" y="140" width="290" height="240" as="geometry" />
        </mxCell>
        <mxCell id="NsStf1FApIUiPz_v59kX-2" value="+ static MachineState *current_machine" style="text;strokeColor=none;fillColor=none;align=left;verticalAlign=top;spacingLeft=4;spacingRight=4;overflow=hidden;rotatable=0;points=[[0,0.5],[1,0.5]];portConstraint=eastwest;" parent="NsStf1FApIUiPz_v59kX-1" vertex="1">
          <mxGeometry y="26" width="290" height="20" as="geometry" />
        </mxCell>
        <mxCell id="NsStf1FApIUiPz_v59kX-18" value="+ char *dtb" style="text;strokeColor=none;fillColor=none;align=left;verticalAlign=top;spacingLeft=4;spacingRight=4;overflow=hidden;rotatable=0;points=[[0,0.5],[1,0.5]];portConstraint=eastwest;" parent="NsStf1FApIUiPz_v59kX-1" vertex="1">
          <mxGeometry y="46" width="290" height="20" as="geometry" />
        </mxCell>
        <mxCell id="NsStf1FApIUiPz_v59kX-19" value="+ char *firmware" style="text;strokeColor=none;fillColor=none;align=left;verticalAlign=top;spacingLeft=4;spacingRight=4;overflow=hidden;rotatable=0;points=[[0,0.5],[1,0.5]];portConstraint=eastwest;" parent="NsStf1FApIUiPz_v59kX-1" vertex="1">
          <mxGeometry y="66" width="290" height="20" as="geometry" />
        </mxCell>
        <mxCell id="NsStf1FApIUiPz_v59kX-20" value="+ char *kernel_filename" style="text;strokeColor=none;fillColor=none;align=left;verticalAlign=top;spacingLeft=4;spacingRight=4;overflow=hidden;rotatable=0;points=[[0,0.5],[1,0.5]];portConstraint=eastwest;" parent="NsStf1FApIUiPz_v59kX-1" vertex="1">
          <mxGeometry y="86" width="290" height="20" as="geometry" />
        </mxCell>
        <mxCell id="NsStf1FApIUiPz_v59kX-21" value="+ char *initrd_filename" style="text;strokeColor=none;fillColor=none;align=left;verticalAlign=top;spacingLeft=4;spacingRight=4;overflow=hidden;rotatable=0;points=[[0,0.5],[1,0.5]];portConstraint=eastwest;" parent="NsStf1FApIUiPz_v59kX-1" vertex="1">
          <mxGeometry y="106" width="290" height="20" as="geometry" />
        </mxCell>
        <mxCell id="NsStf1FApIUiPz_v59kX-9" value="+ MemoryRegion *ram" style="text;strokeColor=none;fillColor=none;align=left;verticalAlign=top;spacingLeft=4;spacingRight=4;overflow=hidden;rotatable=0;points=[[0,0.5],[1,0.5]];portConstraint=eastwest;" parent="NsStf1FApIUiPz_v59kX-1" vertex="1">
          <mxGeometry y="126" width="290" height="20" as="geometry" />
        </mxCell>
        <mxCell id="NsStf1FApIUiPz_v59kX-15" value="+ ram_addr_t ram_size" style="text;strokeColor=none;fillColor=none;align=left;verticalAlign=top;spacingLeft=4;spacingRight=4;overflow=hidden;rotatable=0;points=[[0,0.5],[1,0.5]];portConstraint=eastwest;" parent="NsStf1FApIUiPz_v59kX-1" vertex="1">
          <mxGeometry y="146" width="290" height="20" as="geometry" />
        </mxCell>
        <mxCell id="NsStf1FApIUiPz_v59kX-16" value="+ CpuTopology smp" style="text;strokeColor=none;fillColor=none;align=left;verticalAlign=top;spacingLeft=4;spacingRight=4;overflow=hidden;rotatable=0;points=[[0,0.5],[1,0.5]];portConstraint=eastwest;" parent="NsStf1FApIUiPz_v59kX-1" vertex="1">
          <mxGeometry y="166" width="290" height="20" as="geometry" />
        </mxCell>
        <mxCell id="NsStf1FApIUiPz_v59kX-17" value="+ CPUArchIdList *possible_cpus" style="text;strokeColor=none;fillColor=none;align=left;verticalAlign=top;spacingLeft=4;spacingRight=4;overflow=hidden;rotatable=0;points=[[0,0.5],[1,0.5]];portConstraint=eastwest;" parent="NsStf1FApIUiPz_v59kX-1" vertex="1">
          <mxGeometry y="186" width="290" height="20" as="geometry" />
        </mxCell>
        <mxCell id="NsStf1FApIUiPz_v59kX-3" value="" style="line;strokeWidth=1;fillColor=none;align=left;verticalAlign=middle;spacingTop=-1;spacingLeft=3;spacingRight=3;rotatable=0;labelPosition=right;points=[];portConstraint=eastwest;" parent="NsStf1FApIUiPz_v59kX-1" vertex="1">
          <mxGeometry y="206" width="290" height="8" as="geometry" />
        </mxCell>
        <mxCell id="NsStf1FApIUiPz_v59kX-4" value="+ method(type): type" style="text;strokeColor=none;fillColor=none;align=left;verticalAlign=top;spacingLeft=4;spacingRight=4;overflow=hidden;rotatable=0;points=[[0,0.5],[1,0.5]];portConstraint=eastwest;" parent="NsStf1FApIUiPz_v59kX-1" vertex="1">
          <mxGeometry y="214" width="290" height="26" as="geometry" />
        </mxCell>
        <mxCell id="NsStf1FApIUiPz_v59kX-7" value="Object" style="html=1;" parent="1" vertex="1">
          <mxGeometry x="370" y="70" width="110" height="30" as="geometry" />
        </mxCell>
        <mxCell id="NsStf1FApIUiPz_v59kX-8" value="" style="endArrow=block;endSize=16;endFill=0;html=1;rounded=0;exitX=0.5;exitY=0;exitDx=0;exitDy=0;" parent="1" source="NsStf1FApIUiPz_v59kX-1" target="NsStf1FApIUiPz_v59kX-7" edge="1">
          <mxGeometry width="160" relative="1" as="geometry">
            <mxPoint x="350" y="390" as="sourcePoint" />
            <mxPoint x="510" y="390" as="targetPoint" />
          </mxGeometry>
        </mxCell>
        <mxCell id="EstjiU5TqL2gn_dXMW3X-1" value="MachineClass" style="swimlane;fontStyle=1;align=center;verticalAlign=top;childLayout=stackLayout;horizontal=1;startSize=26;horizontalStack=0;resizeParent=1;resizeParentMax=0;resizeLast=0;collapsible=1;marginBottom=0;" vertex="1" parent="1">
          <mxGeometry x="635" y="140" width="210" height="174" as="geometry" />
        </mxCell>
        <mxCell id="EstjiU5TqL2gn_dXMW3X-2" value="+ char *name;" style="text;strokeColor=none;fillColor=none;align=left;verticalAlign=top;spacingLeft=4;spacingRight=4;overflow=hidden;rotatable=0;points=[[0,0.5],[1,0.5]];portConstraint=eastwest;" vertex="1" parent="EstjiU5TqL2gn_dXMW3X-1">
          <mxGeometry y="26" width="210" height="20" as="geometry" />
        </mxCell>
        <mxCell id="EstjiU5TqL2gn_dXMW3X-21" value="+ int max_cpus" style="text;strokeColor=none;fillColor=none;align=left;verticalAlign=top;spacingLeft=4;spacingRight=4;overflow=hidden;rotatable=0;points=[[0,0.5],[1,0.5]];portConstraint=eastwest;" vertex="1" parent="EstjiU5TqL2gn_dXMW3X-1">
          <mxGeometry y="46" width="210" height="20" as="geometry" />
        </mxCell>
        <mxCell id="EstjiU5TqL2gn_dXMW3X-22" value="+ ram_addr_t default_ram_size" style="text;strokeColor=none;fillColor=none;align=left;verticalAlign=top;spacingLeft=4;spacingRight=4;overflow=hidden;rotatable=0;points=[[0,0.5],[1,0.5]];portConstraint=eastwest;" vertex="1" parent="EstjiU5TqL2gn_dXMW3X-1">
          <mxGeometry y="66" width="210" height="20" as="geometry" />
        </mxCell>
        <mxCell id="EstjiU5TqL2gn_dXMW3X-23" value="+ const char *default_ram_id" style="text;strokeColor=none;fillColor=none;align=left;verticalAlign=top;spacingLeft=4;spacingRight=4;overflow=hidden;rotatable=0;points=[[0,0.5],[1,0.5]];portConstraint=eastwest;" vertex="1" parent="EstjiU5TqL2gn_dXMW3X-1">
          <mxGeometry y="86" width="210" height="20" as="geometry" />
        </mxCell>
        <mxCell id="EstjiU5TqL2gn_dXMW3X-3" value="" style="line;strokeWidth=1;fillColor=none;align=left;verticalAlign=middle;spacingTop=-1;spacingLeft=3;spacingRight=3;rotatable=0;labelPosition=right;points=[];portConstraint=eastwest;" vertex="1" parent="EstjiU5TqL2gn_dXMW3X-1">
          <mxGeometry y="106" width="210" height="8" as="geometry" />
        </mxCell>
        <mxCell id="EstjiU5TqL2gn_dXMW3X-4" value="void (*init)(MachineState *state);&#xa;void (*reset)(MachineState *state);&#xa;void (*wakeup)(MachineState *state);" style="text;strokeColor=none;fillColor=none;align=left;verticalAlign=top;spacingLeft=4;spacingRight=4;overflow=hidden;rotatable=0;points=[[0,0.5],[1,0.5]];portConstraint=eastwest;" vertex="1" parent="EstjiU5TqL2gn_dXMW3X-1">
          <mxGeometry y="114" width="210" height="60" as="geometry" />
        </mxCell>
        <mxCell id="EstjiU5TqL2gn_dXMW3X-5" value="ObjectClass" style="html=1;" vertex="1" parent="1">
          <mxGeometry x="685" y="70" width="110" height="30" as="geometry" />
        </mxCell>
        <mxCell id="EstjiU5TqL2gn_dXMW3X-6" value="" style="endArrow=block;endSize=16;endFill=0;html=1;rounded=0;exitX=0.5;exitY=0;exitDx=0;exitDy=0;entryX=0.5;entryY=1;entryDx=0;entryDy=0;" edge="1" parent="1" source="EstjiU5TqL2gn_dXMW3X-1" target="EstjiU5TqL2gn_dXMW3X-5">
          <mxGeometry width="160" relative="1" as="geometry">
            <mxPoint x="435" y="180" as="sourcePoint" />
            <mxPoint x="451.47058823529414" y="110" as="targetPoint" />
          </mxGeometry>
        </mxCell>
        <mxCell id="EstjiU5TqL2gn_dXMW3X-7" value="MPS2MachineState" style="swimlane;fontStyle=1;align=center;verticalAlign=top;childLayout=stackLayout;horizontal=1;startSize=26;horizontalStack=0;resizeParent=1;resizeParentMax=0;resizeLast=0;collapsible=1;marginBottom=0;" vertex="1" parent="1">
          <mxGeometry x="334" y="430" width="160" height="208" as="geometry" />
        </mxCell>
        <mxCell id="EstjiU5TqL2gn_dXMW3X-8" value="+ ARMv7MState armv7m" style="text;strokeColor=none;fillColor=none;align=left;verticalAlign=top;spacingLeft=4;spacingRight=4;overflow=hidden;rotatable=0;points=[[0,0.5],[1,0.5]];portConstraint=eastwest;" vertex="1" parent="EstjiU5TqL2gn_dXMW3X-7">
          <mxGeometry y="26" width="160" height="20" as="geometry" />
        </mxCell>
        <mxCell id="EstjiU5TqL2gn_dXMW3X-9" value="" style="line;strokeWidth=1;fillColor=none;align=left;verticalAlign=middle;spacingTop=-1;spacingLeft=3;spacingRight=3;rotatable=0;labelPosition=right;points=[];portConstraint=eastwest;" vertex="1" parent="EstjiU5TqL2gn_dXMW3X-7">
          <mxGeometry y="46" width="160" height="8" as="geometry" />
        </mxCell>
        <mxCell id="EstjiU5TqL2gn_dXMW3X-10" value="+ method(type): type" style="text;strokeColor=none;fillColor=none;align=left;verticalAlign=top;spacingLeft=4;spacingRight=4;overflow=hidden;rotatable=0;points=[[0,0.5],[1,0.5]];portConstraint=eastwest;" vertex="1" parent="EstjiU5TqL2gn_dXMW3X-7">
          <mxGeometry y="54" width="160" height="26" as="geometry" />
        </mxCell>
        <mxCell id="EstjiU5TqL2gn_dXMW3X-26" value="+ MemoryRegion ssram1" style="text;strokeColor=none;fillColor=none;align=left;verticalAlign=top;spacingLeft=4;spacingRight=4;overflow=hidden;rotatable=0;points=[[0,0.5],[1,0.5]];portConstraint=eastwest;" vertex="1" parent="EstjiU5TqL2gn_dXMW3X-7">
          <mxGeometry y="80" width="160" height="20" as="geometry" />
        </mxCell>
        <mxCell id="EstjiU5TqL2gn_dXMW3X-27" value="+ MemoryRegion blockram" style="text;strokeColor=none;fillColor=none;align=left;verticalAlign=top;spacingLeft=4;spacingRight=4;overflow=hidden;rotatable=0;points=[[0,0.5],[1,0.5]];portConstraint=eastwest;" vertex="1" parent="EstjiU5TqL2gn_dXMW3X-7">
          <mxGeometry y="100" width="160" height="20" as="geometry" />
        </mxCell>
        <mxCell id="EstjiU5TqL2gn_dXMW3X-28" value="+ MemoryRegion sram" style="text;strokeColor=none;fillColor=none;align=left;verticalAlign=top;spacingLeft=4;spacingRight=4;overflow=hidden;rotatable=0;points=[[0,0.5],[1,0.5]];portConstraint=eastwest;" vertex="1" parent="EstjiU5TqL2gn_dXMW3X-7">
          <mxGeometry y="120" width="160" height="20" as="geometry" />
        </mxCell>
        <mxCell id="EstjiU5TqL2gn_dXMW3X-30" value="APB" style="line;strokeWidth=1;fillColor=none;align=left;verticalAlign=middle;spacingTop=-1;spacingLeft=3;spacingRight=3;rotatable=0;labelPosition=right;points=[];portConstraint=eastwest;" vertex="1" parent="EstjiU5TqL2gn_dXMW3X-7">
          <mxGeometry y="140" width="160" height="8" as="geometry" />
        </mxCell>
        <mxCell id="EstjiU5TqL2gn_dXMW3X-29" value="+ MPS2SCC scc" style="text;strokeColor=none;fillColor=none;align=left;verticalAlign=top;spacingLeft=4;spacingRight=4;overflow=hidden;rotatable=0;points=[[0,0.5],[1,0.5]];portConstraint=eastwest;" vertex="1" parent="EstjiU5TqL2gn_dXMW3X-7">
          <mxGeometry y="148" width="160" height="20" as="geometry" />
        </mxCell>
        <mxCell id="EstjiU5TqL2gn_dXMW3X-35" value="+ MPS2FPGAIO fpgaio" style="text;strokeColor=none;fillColor=none;align=left;verticalAlign=top;spacingLeft=4;spacingRight=4;overflow=hidden;rotatable=0;points=[[0,0.5],[1,0.5]];portConstraint=eastwest;" vertex="1" parent="EstjiU5TqL2gn_dXMW3X-7">
          <mxGeometry y="168" width="160" height="20" as="geometry" />
        </mxCell>
        <mxCell id="EstjiU5TqL2gn_dXMW3X-34" value="+ CMSDKAPBWatchdog watchdog" style="text;strokeColor=none;fillColor=none;align=left;verticalAlign=top;spacingLeft=4;spacingRight=4;overflow=hidden;rotatable=0;points=[[0,0.5],[1,0.5]];portConstraint=eastwest;" vertex="1" parent="EstjiU5TqL2gn_dXMW3X-7">
          <mxGeometry y="188" width="160" height="20" as="geometry" />
        </mxCell>
        <mxCell id="EstjiU5TqL2gn_dXMW3X-11" value="MPS2MachineClass" style="swimlane;fontStyle=1;align=center;verticalAlign=top;childLayout=stackLayout;horizontal=1;startSize=26;horizontalStack=0;resizeParent=1;resizeParentMax=0;resizeLast=0;collapsible=1;marginBottom=0;" vertex="1" parent="1">
          <mxGeometry x="660" y="340" width="160" height="112" as="geometry" />
        </mxCell>
        <mxCell id="EstjiU5TqL2gn_dXMW3X-12" value="+ hwaddr ethernet_base" style="text;strokeColor=none;fillColor=none;align=left;verticalAlign=top;spacingLeft=4;spacingRight=4;overflow=hidden;rotatable=0;points=[[0,0.5],[1,0.5]];portConstraint=eastwest;" vertex="1" parent="EstjiU5TqL2gn_dXMW3X-11">
          <mxGeometry y="26" width="160" height="26" as="geometry" />
        </mxCell>
        <mxCell id="EstjiU5TqL2gn_dXMW3X-24" value="+ hwaddr psram_base" style="text;strokeColor=none;fillColor=none;align=left;verticalAlign=top;spacingLeft=4;spacingRight=4;overflow=hidden;rotatable=0;points=[[0,0.5],[1,0.5]];portConstraint=eastwest;" vertex="1" parent="EstjiU5TqL2gn_dXMW3X-11">
          <mxGeometry y="52" width="160" height="26" as="geometry" />
        </mxCell>
        <mxCell id="EstjiU5TqL2gn_dXMW3X-13" value="" style="line;strokeWidth=1;fillColor=none;align=left;verticalAlign=middle;spacingTop=-1;spacingLeft=3;spacingRight=3;rotatable=0;labelPosition=right;points=[];portConstraint=eastwest;" vertex="1" parent="EstjiU5TqL2gn_dXMW3X-11">
          <mxGeometry y="78" width="160" height="8" as="geometry" />
        </mxCell>
        <mxCell id="EstjiU5TqL2gn_dXMW3X-14" value="+ method(type): type" style="text;strokeColor=none;fillColor=none;align=left;verticalAlign=top;spacingLeft=4;spacingRight=4;overflow=hidden;rotatable=0;points=[[0,0.5],[1,0.5]];portConstraint=eastwest;" vertex="1" parent="EstjiU5TqL2gn_dXMW3X-11">
          <mxGeometry y="86" width="160" height="26" as="geometry" />
        </mxCell>
        <mxCell id="EstjiU5TqL2gn_dXMW3X-15" value="" style="endArrow=block;endSize=16;endFill=0;html=1;rounded=0;exitX=0.5;exitY=0;exitDx=0;exitDy=0;entryX=0.505;entryY=0.983;entryDx=0;entryDy=0;entryPerimeter=0;" edge="1" parent="1" source="EstjiU5TqL2gn_dXMW3X-11" target="EstjiU5TqL2gn_dXMW3X-4">
          <mxGeometry width="160" relative="1" as="geometry">
            <mxPoint x="750" y="150" as="sourcePoint" />
            <mxPoint x="750" y="110" as="targetPoint" />
          </mxGeometry>
        </mxCell>
        <mxCell id="EstjiU5TqL2gn_dXMW3X-16" value="" style="endArrow=block;endSize=16;endFill=0;html=1;rounded=0;exitX=0.5;exitY=0;exitDx=0;exitDy=0;entryX=0.466;entryY=1.038;entryDx=0;entryDy=0;entryPerimeter=0;" edge="1" parent="1" source="EstjiU5TqL2gn_dXMW3X-7" target="NsStf1FApIUiPz_v59kX-4">
          <mxGeometry width="160" relative="1" as="geometry">
            <mxPoint x="750" y="350" as="sourcePoint" />
            <mxPoint x="751.0500000000002" y="268.98" as="targetPoint" />
          </mxGeometry>
        </mxCell>
      </root>
    </mxGraphModel>
  </diagram>
</mxfile>
